<?xml version="1.0" encoding="UTF-8"?>
<svg id="Layer_1" xmlns="http://www.w3.org/2000/svg" version="1.1" viewBox="0 0 363.7 389.39">
  <!-- Generator: Adobe Illustrator 29.1.0, SVG Export Plug-In . SVG Version: 2.1.0 Build 142)  -->
  <defs>
    <style>
      .st0 {
        fill: #edf0f1;
        stroke: #013952;
        stroke-miterlimit: 10;
        stroke-width: 5px;
      }

      .st1 {
        fill: #013952;
      }

      .st2 {
        fill: #6ab5bb;
      }

      .st3, .st4 {
        fill: #2a5f65;
      }

      .st4 {
        font-family: Helvetica, Helvetica;
        font-size: 40px;
        stroke: #2a5f65;
        stroke-linecap: round;
        stroke-linejoin: round;
      }

      .st5 {
        fill: #939598;
      }
    </style>
  </defs>
  <polygon class="st0" points="17.38 288.47 17.62 100.51 182.09 6.74 346.32 100.92 346.08 288.88 181.61 382.65 17.38 288.47"/>
  <g>
    <path class="st5" d="M186.68,122.11h23.35c5.93,0,5.93-9.19,0-9.19h-.89c-5.93,0-5.93,9.19,0,9.19h.89c5.93,0,5.93-9.19,0-9.19h-23.35c-5.92,0-5.92,9.19,0,9.19h0Z"/>
    <path class="st2" d="M220.11,122.11h17.33c5.93,0,5.93-9.19,0-9.19h-.66c-5.93,0-5.93,9.19,0,9.19h.66c5.93,0,5.93-9.19,0-9.19h-17.33c-5.92,0-5.92,9.19,0,9.19h0Z"/>
    <path class="st2" d="M182.64,143.26h16.65c5.93,0,5.93-9.19,0-9.19h-.63c-5.93,0-5.93,9.19,0,9.19h.63c5.93,0,5.93-9.19,0-9.19h-16.65c-5.92,0-5.92,9.19,0,9.19h0Z"/>
    <path class="st5" d="M209.37,143.26h14.85c5.93,0,5.93-9.19,0-9.19h-.57c-5.93,0-5.93,9.19,0,9.19h.57c5.93,0,5.93-9.19,0-9.19h-14.85c-5.93,0-5.93,9.19,0,9.19h0Z"/>
    <path class="st2" d="M182.64,165.11h21.37c5.93,0,5.93-9.19,0-9.19h-.81c-5.93,0-5.93,9.19,0,9.19h.81c5.93,0,5.93-9.19,0-9.19h-21.37c-5.92,0-5.92,9.19,0,9.19h0Z"/>
    <path class="st2" d="M226.3,100.26h18.24c5.93,0,5.93-9.19,0-9.19h-.69c-5.93,0-5.93,9.19,0,9.19h.69c5.93,0,5.93-9.19,0-9.19h-18.24c-5.93,0-5.93,9.19,0,9.19h0Z"/>
    <path class="st3" d="M246.91,102.55c8.89,0,8.89-13.78,0-13.78s-8.89,13.78,0,13.78h0Z"/>
    <path class="st3" d="M240.07,124.41c8.89,0,8.89-13.78,0-13.78s-8.89,13.78,0,13.78h0Z"/>
    <path class="st3" d="M224.22,145.55c8.89,0,8.89-13.78,0-13.78s-8.89,13.78,0,13.78h0Z"/>
    <path class="st3" d="M203.44,166.88c8.89,0,8.89-13.78,0-13.78s-8.89,13.78,0,13.78h0Z"/>
    <path class="st2" d="M177.02,198.92h-23.35c-5.92,0-5.92,9.19,0,9.19h.89c5.92,0,5.92-9.19,0-9.19h-.89c-5.92,0-5.92,9.19,0,9.19h23.35c5.92,0,5.92-9.19,0-9.19h0Z"/>
    <path class="st5" d="M143.58,198.92h-17.33c-5.92,0-5.92,9.19,0,9.19h.66c5.92,0,5.92-9.19,0-9.19h-.66c-5.92,0-5.92,9.19,0,9.19h17.33c5.92,0,5.92-9.19,0-9.19h0Z"/>
    <path class="st5" d="M181.06,177.77h-16.65c-5.92,0-5.92,9.19,0,9.19h.63c5.92,0,5.92-9.19,0-9.19h-.63c-5.92,0-5.92,9.19,0,9.19h16.65c5.92,0,5.92-9.19,0-9.19h0Z"/>
    <path class="st2" d="M154.33,177.77h-14.85c-5.92,0-5.92,9.19,0,9.19h.57c5.92,0,5.92-9.19,0-9.19h-.57c-5.92,0-5.92,9.19,0,9.19h14.85c5.92,0,5.92-9.19,0-9.19h0Z"/>
    <path class="st5" d="M181.85,155.91h-22.16c-5.92,0-5.92,9.19,0,9.19h.84c5.92,0,5.92-9.19,0-9.19h-.84c-5.92,0-5.92,9.19,0,9.19h22.16c5.92,0,5.92-9.19,0-9.19h0Z"/>
    <path class="st5" d="M137.4,220.77h-18.24c-5.92,0-5.92,9.19,0,9.19h.69c5.92,0,5.92-9.19,0-9.19h-.69c-5.92,0-5.92,9.19,0,9.19h18.24c5.92,0,5.92-9.19,0-9.19h0Z"/>
    <path class="st3" d="M116.79,232.26c8.89,0,8.89-13.78,0-13.78s-8.89,13.78,0,13.78h0Z"/>
    <path class="st3" d="M123.63,210.4c8.89,0,8.89-13.78,0-13.78s-8.89,13.78,0,13.78h0Z"/>
    <path class="st3" d="M139.48,189.26c8.89,0,8.89-13.78,0-13.78s-8.89,13.78,0,13.78h0Z"/>
    <path class="st3" d="M160.25,167.93c8.89,0,8.89-13.78,0-13.78s-8.89,13.78,0,13.78h0Z"/>
    <path class="st1" d="M215.96,91.07c-10.05,0-20.01.77-26.91,9.03-13.04,15.59-11.71,42.69-11.79,61.48-.03,5.93,9.16,5.92,9.19,0,.07-17.13-.98-38.93,8.53-54.13,4.6-7.35,13.31-7.19,20.99-7.19,5.92,0,5.92-9.19,0-9.19h0Z"/>
    <path class="st1" d="M147.74,229.96c10.05,0,20.01-.78,26.91-9.03,13.04-15.59,11.71-42.69,11.79-61.48.03-5.93-9.16-5.92-9.19,0-.07,17.13.98,38.93-8.53,54.13-4.6,7.35-13.31,7.19-20.99,7.19-5.92,0-5.92,9.19,0,9.19h0Z"/>
  </g>
  <text class="st4" transform="translate(53.82 283.85)"><tspan x="0" y="0">JEFworks Lab</tspan></text>
</svg>