<?xml version="1.0" encoding="UTF-8"?>
<svg id="Layer_1" xmlns="http://www.w3.org/2000/svg" version="1.1" viewBox="0 0 80 80">
  <!-- Generator: Adobe Illustrator 29.1.0, SVG Export Plug-In . SVG Version: 2.1.0 Build 142)  -->
  <defs>
    <style>
      .st0 {
        fill: #023952;
      }

      .st1 {
        fill: #6ab4bb;
      }

      .st2 {
        fill: #939598;
      }

      .st3 {
        fill: #285e64;
      }
    </style>
  </defs>
  <path class="st2" d="M42.62,19.04h12.71c3.22,0,3.22-5,0-5h-.48c-3.22,0-3.22,5,0,5h.48c3.22,0,3.22-5,0-5h-12.71c-3.22,0-3.22,5,0,5h0Z"/>
  <path class="st1" d="M60.81,19.04h9.43c3.22,0,3.22-5,0-5h-.36c-3.22,0-3.22,5,0,5h.36c3.22,0,3.22-5,0-5h-9.43c-3.22,0-3.22,5,0,5h0Z"/>
  <path class="st1" d="M40.42,30.55h9.06c3.22,0,3.22-5,0-5h-.34c-3.22,0-3.22,5,0,5h.34c3.22,0,3.22-5,0-5h-9.06c-3.22,0-3.22,5,0,5h0Z"/>
  <path class="st2" d="M54.97,30.55h8.08c3.23,0,3.23-5,0-5h-.31c-3.22,0-3.22,5,0,5h.31c3.23,0,3.23-5,0-5h-8.08c-3.22,0-3.22,5,0,5h0Z"/>
  <path class="st1" d="M40.42,42.45h11.63c3.22,0,3.22-5,0-5h-.44c-3.22,0-3.22,5,0,5h.44c3.22,0,3.22-5,0-5h-11.63c-3.22,0-3.22,5,0,5h0Z"/>
  <path class="st1" d="M64.18,7.15h9.93c3.22,0,3.22-5,0-5h-.38c-3.22,0-3.22,5,0,5h.38c3.22,0,3.22-5,0-5h-9.93c-3.22,0-3.22,5,0,5h0Z"/>
  <path class="st3" d="M75.4,8.4c4.84,0,4.84-7.5,0-7.5s-4.84,7.5,0,7.5h0Z"/>
  <path class="st3" d="M71.68,20.29c4.84,0,4.84-7.5,0-7.5s-4.84,7.5,0,7.5h0Z"/>
  <path class="st3" d="M63.05,31.8c4.84,0,4.84-7.5,0-7.5s-4.84,7.5,0,7.5h0Z"/>
  <path class="st3" d="M51.74,43.41c4.84,0,4.84-7.5,0-7.5s-4.84,7.5,0,7.5h0Z"/>
  <path class="st1" d="M37.36,60.84h-12.71c-3.22,0-3.22,5,0,5h.48c3.22,0,3.22-5,0-5h-.48c-3.22,0-3.22,5,0,5h12.71c3.22,0,3.22-5,0-5h0Z"/>
  <path class="st2" d="M19.16,60.84h-9.43c-3.22,0-3.22,5,0,5h.36c3.22,0,3.22-5,0-5h-.36c-3.22,0-3.22,5,0,5h9.43c3.22,0,3.22-5,0-5h0Z"/>
  <path class="st2" d="M39.56,49.34h-9.06c-3.22,0-3.22,5,0,5h.34c3.22,0,3.22-5,0-5h-.34c-3.22,0-3.22,5,0,5h9.06c3.22,0,3.22-5,0-5h0Z"/>
  <path class="st1" d="M25.01,49.34h-8.08c-3.22,0-3.22,5,0,5h.31c3.22,0,3.22-5,0-5h-.31c-3.22,0-3.22,5,0,5h8.08c3.22,0,3.22-5,0-5h0Z"/>
  <path class="st2" d="M39.99,37.44h-12.06c-3.22,0-3.22,5,0,5h.46c3.22,0,3.22-5,0-5h-.46c-3.22,0-3.22,5,0,5h12.06c3.22,0,3.22-5,0-5h0Z"/>
  <path class="st2" d="M15.8,72.74H5.88c-3.22,0-3.22,5,0,5h.38c3.22,0,3.22-5,0-5h-.38c-3.22,0-3.22,5,0,5h9.93c3.22,0,3.22-5,0-5h0Z"/>
  <path class="st3" d="M4.59,78.99c4.84,0,4.84-7.5,0-7.5s-4.84,7.5,0,7.5h0Z"/>
  <path class="st3" d="M8.31,67.09c4.84,0,4.84-7.5,0-7.5s-4.84,7.5,0,7.5h0Z"/>
  <path class="st3" d="M16.93,55.59c4.84,0,4.84-7.5,0-7.5s-4.84,7.5,0,7.5h0Z"/>
  <path class="st3" d="M28.24,43.98c4.84,0,4.84-7.5,0-7.5s-4.84,7.5,0,7.5h0Z"/>
  <path class="st0" d="M58.55,2.15c-5.47,0-10.89.42-14.65,4.91-7.1,8.49-6.37,23.23-6.42,33.46-.01,3.22,4.99,3.22,5,0,.04-9.32-.53-21.19,4.64-29.46,2.5-4,7.24-3.91,11.42-3.91,3.22,0,3.22-5,0-5h0Z"/>
  <path class="st0" d="M21.43,77.74c5.47,0,10.89-.42,14.65-4.91,7.1-8.49,6.37-23.23,6.42-33.46.01-3.22-4.99-3.22-5,0-.04,9.32.53,21.19-4.64,29.46-2.5,4-7.24,3.92-11.42,3.92-3.22,0-3.22,5,0,5h0Z"/>
</svg>