<?xml version="1.0" encoding="UTF-8" standalone="no"?>
<svg 
   version="1.1"
   baseProfile="full" 
   xmlns="http://www.w3.org/2000/svg"
   width="5333.3335"
   height="5333.3335"
   viewBox="0 0 5333.3335 5333.3335"
   >
   <path
   d="M 0,5333.3333 H 5333.3332 V 1e-4 H 0 Z"
   style="fill:#4db7ff;"
   id="path14" /><path
   d="m 1766.2,3819.6667 c -71.5467,4.1466 -121.4534,7.24 -121.4534,7.24 -25.28,103.3866 -13.7866,298.68 165.4134,399.76 119.6933,67.52 275.1866,44.7866 383.7866,-17.4267 -264.7733,94.8667 -530.4,-136.0267 -427.7466,-389.5733"
   style="fill:#ffffff;"
   id="path18" /><path
   d="m 2262.7599,3799.3467 c -43.4533,-4.8267 -329.2399,10.6266 -496.5599,20.32 -102.6534,253.5466 162.9733,484.44 427.7466,389.5733 54,-30.9333 96.4533,-71.5733 117.0533,-115.8267 62.0267,-133.2533 13.7867,-287.1733 -48.24,-294.0666"
   style="fill:#fc9a24;"
   id="path20" /><path
   d="M 2295.3733,4086.1467 C 2267.5599,4145.92 2194.3866,4201 2104.4266,4229.88 c -102.6533,32.9733 -206.8266,26.3333 -285.8,-18.2133 -166.3733,-93.8667 -179.5866,-269.9734 -159.88,-368.36 195.24,-12 555.28,-32.04 602.1067,-26.84 12.2,1.36 25.48,13.3066 36.44,32.8 29.4533,52.3866 38.2666,150.5866 -1.92,236.88 m -30.72,-303.92 c -62.76,-6.9867 -598.2133,26.08 -620.9733,27.4933 l -12.6667,0.7733 -3.0133,12.3334 c -25.6,104.7333 -17.8267,310.8133 173.6933,418.8533 51,28.7733 111.1467,43.3467 174.6533,43.3467 45.2133,0 92.1333,-7.4 138.6267,-22.3334 98.8,-31.7333 179.9066,-93.8 211.6533,-162 47.1733,-101.3333 33.4267,-210.12 0.7067,-268.32 -16.7067,-29.7066 -38.96,-47.52 -62.68,-50.1466"
   style="fill:#000000;"
   id="path28" /><path
   d="m 2044.4399,3962.8933 c -12.3066,-41.1866 2.08,-96.6933 42.4,-110.4933 l -11.16,-32.6 c -59.68,20.4267 -81.3999,95.5867 -64.2533,152.96 6.5333,21.8933 19.0933,42.9067 38.36,58.44 62.48,42.6933 121.3867,-14.7867 121.3867,-14.7867 -92.8,23.8134 -119.56,-29.4933 -126.7334,-53.52"
   style="fill:#000000;"
   id="path30" /><path
   d="m 1745.28,2490.9067 c -11.5867,-9.3333 -20.24,-13.8267 -20.24,-13.8267 18.6533,-25.24 33.8,-58.2933 39.1733,-102.16 13.7733,-112.5733 -71.2267,-163.12 -165.4267,-156.2266 -94.1866,6.8933 -213.6533,85.0133 -259.6,183.8 -45.9573,98.7866 -20.684,202.1733 62.0267,250.4266 0,0 104.6933,-15.0666 208.72,-30.36 73.6933,-40.84 115.9733,-95.1333 135.3467,-131.6533"
   style="fill:#ffffff;"
   id="path32" /><path
   d="m 1394.32,2397.8934 c -32.16,35.6133 -40.2,87.3066 -20.68,115.4133 19.5333,28.0933 79.2666,39.6667 122.92,5.2133 43.6533,-34.4666 51.6933,-104.5333 18.3733,-137.8533 -33.3067,-33.3067 -88.96,-17.8133 -120.6133,17.2267"
   style="fill:#fc63a2;"
   id="path34" /><path
   d="m 1599.9466,2303.4134 c -23.6266,13.64 -35.5866,37.1733 -26.7066,52.56 8.8933,15.3866 35.24,16.8 58.8666,3.1466 23.6267,-13.6266 35.5734,-37.16 26.6934,-52.5466 -8.88,-15.3867 -35.24,-16.8 -58.8534,-3.16"
   style="fill:#fc63a2;"
   id="path36" /><path
   d="m 1509.1866,2257.4667 c -23.6266,13.64 -35.5733,37.1733 -26.6933,52.5467 8.88,15.3866 35.24,16.8 58.8667,3.16 23.6266,-13.64 35.5733,-37.16 26.6933,-52.5467 -8.88,-15.3867 -35.24,-16.8 -58.8667,-3.16"
   style="fill:#fc63a2;"
   id="path38" /><path
   d="m 1617.8133,2410.56 c -25.7867,8.92 -41.9733,29.76 -36.16,46.5467 5.8,16.7867 31.4133,23.16 57.1867,14.24 25.7866,-8.92 41.9733,-29.76 36.1733,-46.5467 -5.8133,-16.7866 -31.4133,-23.16 -57.2,-14.24"
   style="fill:#fc63a2;"
   id="path40" /><path
   d="m 1745.28,2490.9067 c -19.3734,36.52 -61.6534,90.8133 -135.3467,131.6533 82.1733,-12.08 163.9333,-24.3066 193.3333,-29.3733 -5.9333,-51.96 -36.8533,-85.2267 -57.9866,-102.28"
   style="fill:#fc9a24;"
   id="path42" /><path
   d="m 1404.88,2634.9867 c -70.6667,-44.8 -91.364,-136.4667 -50.08,-225.2267 41.4,-89.0133 151.4133,-167.0133 245.2533,-173.88 5.28,-0.3866 10.4933,-0.5733 15.64,-0.5733 43.32,0 80.76,13.6133 104.2933,38.3333 23.0934,24.24 32.2134,57.6134 27.12,99.1867 -4.4266,36.1333 -16.5066,67.76 -35.92,94 l -11.88,16.1733 17.76,9.36 c 2.2934,1.2 52.0267,28.0134 66.2267,86.6534 -85.1067,13.64 -335.9467,49.8533 -378.4133,55.9733 M 1749.1466,2472.12 c 17.0267,-27.76 27.8267,-59.6666 32.16,-95.1066 6.32,-51.56 -6.2533,-95.5334 -36.36,-127.1467 -33.4666,-35.1333 -87.1866,-52.7733 -147.4133,-48.36 -104.96,7.68 -227.8667,94.5867 -273.976,193.72 -50.0467,107.6 -21.6867,219.6933 68.976,272.5733 l 5.1867,3.0267 5.9466,-0.8533 c 3.36,-0.48 336.4267,-48.4134 402.5334,-59.8134 l 16.04,-2.76 -1.8534,-16.1733 c -7.3066,-63.9067 -47.9866,-102.16 -71.24,-119.1067"
   style="fill:#000000;"
   id="path48" /><path
   d="m 1629.7066,2533.0534 -2.6,1.4533 c 0,0 68.7467,0 111.7867,-47.1867 l -27.7067,-20.4933 c -25.92,35.0667 -59.36,53.8133 -81.48,66.2267"
   style="fill:#000000;"
   id="path50" /><path
   d="m 2626.2399,2059.3867 c -34.12,-11.1867 -74.3066,-17.4 -122.2533,-15.8667 -161.9733,5.16 -229.1733,139.56 -218.8267,225.72 10.3334,86.16 74.0934,144.7467 161.96,130.96 l 172.9467,-107.9866 c 31.7867,-81.7867 28.2533,-170.6267 6.1733,-232.8267"
   style="fill:#ffffff;"
   id="path52" /><path
   d="m 2626.2399,2059.3867 c 22.08,62.2 25.6134,151.04 -6.1733,232.8267 l 166.5067,-103.96 C 2753.8266,2140.9467 2707.3599,2086 2626.2399,2059.3867"
   style="fill:#fc9a24;"
   id="path54" /><path
   d="m 2639.5999,2114.04 c -10.6133,-4.44 -20.2933,-7.5733 -27.6266,-9.0666 0,0 -11.2267,-20.8667 -8.4134,-34.4 10.16,2.6133 19.8134,5.6933 28.9734,9.16 2.9066,10.88 5.2933,22.3733 7.0666,34.3066"
   style="fill:#ffffff;"
   id="path56" /><path
   d="m 2640.8933,2207.72 c 0.56,-4.7733 1.0266,-9.5466 1.3866,-14.2933 4.9467,1.36 9.7734,2.7733 14.4134,4.2267 -5.2267,3.3733 -10.4934,6.7333 -15.8,10.0666"
   style="fill:#ca7b34;"
   id="path62" /><path
   d="m 2441.0666,2383.6667 c -33.68,4.52 -64.2267,-2.7733 -88.5333,-21.1733 -27.5467,-20.84 -45.4,-54.6934 -50.2667,-95.3067 -5.2933,-44.1067 12.76,-97.6 46,-136.2933 26.2533,-30.56 74.68,-67.5467 156.2667,-70.16 4.7333,-0.1467 9.36,-0.2134 13.9333,-0.2134 129.44,0 196.6133,59.6267 243.4267,122.84 l -320.8267,200.3067 m 62.3733,-357.3733 c -94.12,3 -150.5466,46.3333 -181.32,82.1466 -39.84,46.3867 -60.56,108.7867 -54.0666,162.8534 6,49.9866 28.6133,92.1333 63.68,118.68 25.7466,19.4933 56.4666,29.48 90.04,29.48 9.1333,0 18.5066,-0.7467 28.0266,-2.24 l 3.4667,-0.5467 357.76,-223.36 -10.28,-14.8533 c -50.9733,-73.64 -130.92,-157.4934 -297.3067,-152.16"
   style="fill:#000000;"
   id="path64" /><path
   d="m 1907.8,2539.7867 c -348.0667,91.3333 -513.48,63.7333 -720.252,136.1067 -206.77069,72.36 -227.44669,197.5733 -259.61202,298.6666 0,0 27.10933,-84.6933 852.35732,-202.1733 825.24,-117.48 1244.0666,-549.52 1244.0666,-549.52 l -110.28,-215.5333 C 2721.0933,2241.6667 2255.8666,2448.44 1907.8,2539.7867"
   style="fill:#fc9a24;"
   id="path66" /><path
   d="m 1777.3733,2751.92 c -517.7253,73.6934 -728.0867,135.0667 -813.02266,174.56 27.764,-87.4 67.95066,-174.3466 230.02936,-231.0666 100.384,-35.1334 192.86,-46.4667 299.94,-59.5867 113.36,-13.88 241.8266,-29.6267 418.7333,-76.04 340.32,-89.32 789.4933,-286.8933 996.6,-515.72 l 89.3333,174.6 c -69.6267,65.64 -483.2267,428.1333 -1221.6133,533.2533 m 1120.7466,-757.7333 c -190.8,231.68 -649.8266,434.8667 -995.5733,525.6 -174.1866,45.7067 -301.2,61.2667 -413.2533,74.9867 -109.4533,13.4133 -203.984,25 -308.576,61.6 -199.10666,69.6933 -235.36132,189.5866 -264.49599,285.9333 -2.656,8.7867 -5.276,17.4533 -7.97867,25.9467 l -0.0107,0.04 21.82533,6.96 3.74667,1.7466 12.09466,7.7334 c 0.67334,-0.7467 3.39867,-3.4534 10.23067,-7.7734 13.08533,-8.2933 40.176,-21.92 94.93203,-39.7866 99.5173,-32.4534 307.3253,-83.84 732.1387,-144.32 429.6533,-61.16 747.8399,-208.5867 939.1066,-321.48 207.8667,-122.6934 312.5467,-229.6267 316.9067,-234.12 l 10.3066,-10.6267 -131.3733,-256.76 -20.0267,24.32"
   style="fill:#000000;"
   id="path72" /><path
   d="m 2504.5333,2060.7334 c -161.9734,5.1733 -229.72,122.3466 -219.3734,208.5066 10.3334,86.16 74.0934,144.7467 161.96,130.96 87.88,-13.7866 143.1067,-99.9333 131.0534,-218.8266 l -73.64,-120.64"
   style="fill:#ffffff;"
   id="path74" /><path
   d="m 2559.8533,2311.9334 c 1.7733,-3.8267 3.4266,-7.7467 4.9733,-11.7734 0.053,-0.04 0.12,-0.067 0.1867,-0.1066 -1.5867,4.0266 -3.3067,7.9866 -5.16,11.88"
   style="fill:#ca9368;"
   id="path76" /><path
   d="m 2577.9599,2245.64 c 2.36,-20.04 2.5067,-41.56 0.2134,-64.2666 3.0933,17.5066 3.64,40.08 0.6133,63.7866 -0.2667,0.16 -0.56,0.32 -0.8267,0.48"
   style="fill:#cccce3;"
   id="path78" /><path
   d="m 2564.8266,2300.16 c 6.36,-16.5866 10.8133,-34.84 13.1333,-54.52 0.2667,-0.16 0.56,-0.32 0.8267,-0.48 -2.3333,18.2134 -6.76,37.0934 -13.7733,54.8934 -0.067,0.04 -0.1334,0.067 -0.1867,0.1066"
   style="fill:#000000;"
   id="path80" /><path
   d="m 2578.1733,2181.3734 c 11.72,115.6133 -60.1467,190.2533 -133.72,201.8 -35.04,5.4933 -66.8,-1.6667 -91.92,-20.68 -27.5467,-20.84 -45.4,-54.6934 -50.2667,-95.3067 -5.2933,-44.1067 12.76,-97.6 46,-136.2933 26.2533,-30.56 74.68,-67.5467 156.2667,-70.16 l -1.0934,-34.44 c -94.12,3 -150.5466,46.3333 -181.32,82.1466 -39.84,46.3867 -60.56,108.7867 -54.08,162.8534 6.0134,49.9866 28.6267,92.1333 63.6934,118.68 25.7466,19.4933 56.4666,29.48 90.04,29.48 9.1333,0 18.5066,-0.7467 28.0266,-2.24 52.6134,-8.2534 104.5734,-42.4667 135.5067,-97.2 34.76,-70.5867 -7.1333,-138.64 -7.1333,-138.64"
   style="fill:#000000;"
   id="path84" /><path
   d="m 2465.6666,2222.88 c 0,0 -32.68,55.84 -8.6133,115.72 10.16,21.5867 27.6666,39.7067 57.08,47.92 l 9.2666,-33.1866 c -47.4933,-13.2667 -57.7333,-130.4534 -57.7333,-130.4534"
   style="fill:#000000;"
   id="path86" /><path
   d="m 2355.5199,2239.84 c 0,0 -43.6533,83.0134 9.3867,166.0134 l 27.3467,-20.96 c -30.2534,-39.4667 -36.7334,-145.0534 -36.7334,-145.0534"
   style="fill:#000000;"
   id="path88" /><path
   d="m 2099.1599,2652.92 c -273.8666,80.4 -763.4266,119.4667 -987.4279,181.4934 -224.00136,62.0266 -312.45335,243.5333 -326.23735,399.76 -13.78534,156.2266 45.948,310.1599 105.68266,379.0799 36.75867,105.68 220.55469,147.3734 220.55469,147.3734 0,0 830.5346,-526.4533 1461.1746,-622.9467 630.6533,-96.4933 885.68,-597.8933 885.68,-597.8933 l -489.36,-367.04 c -220.56,272.2533 -596.2,399.76 -870.0667,480.1733"
   style="fill:#ed1821;"
   id="path90" /><path
   d="m 3431.7599,2545.52 c -21.3067,36.84 -83.7867,136.0534 -193.8666,242.1334 -127.9334,123.2933 -347.6934,280.56 -668.1067,329.5866 -595.6133,91.1334 -1376.1973,568.16 -1461.528,621.1733 -34.5026,-9.24 -169.10129,-50.1733 -197.55329,-131.96 l -1.30533,-3.7466 -2.59734,-3 c -58.43066,-67.4267 -113.58533,-217.8134 -100.71333,-363.72 6.26934,-71.0533 47.23734,-308.56 311.16129,-381.64 101.748,-28.1867 260.2294,-51.76 428.0294,-76.7067 201.7466,-30 410.36,-61.04 559.7066,-104.88 309.0267,-90.7333 652.5333,-217.68 867.5867,-471.6533 l 459.1866,344.4133 m -478.6,-385.7866 c -206.9066,255.4 -550.76,382.6 -859.8266,473.3466 -146.6,43.04 -353.7867,73.8534 -554.1333,103.6534 -169.0934,25.1466 -328.7947,48.9066 -432.988,77.7466 -195.40802,54.12 -323.00269,210.3334 -341.31602,417.8667 -13.84533,156.92 43.54533,314.64 108.13466,391.4933 42.808,112.36 226.25196,155.16 234.12666,156.96 l 8.384,1.8933 7.26,-4.6 c 8.2733,-5.24 834.172,-525.2533 1453.2386,-619.9733 331.1334,-50.6666 558.2934,-213.24 690.5467,-340.6933 143.44,-138.2267 207.76,-263.0267 210.4266,-268.2667 l 7.88,-15.4933 -519.1999,-389.4133 -12.5334,15.48"
   style="fill:#000000;"
   id="path96" /><path
   d="m 1074.4706,3234.1067 11.8627,-2.2667 -11.2747,-4.3333 c -15.2306,-5.8667 -48.0773,-2.84 -74.7813,6.8667 -6.48532,2.36 -12.76266,5.8133 -18.82666,9.1333 -10.53066,5.7867 -20.492,11.2667 -27.59333,8.4933 -4.536,-1.7466 -8.19067,-6.8133 -11.176,-15.4933 -12.24667,-35.64 -5.64133,-108.12 -5.56933,-108.84 l 2.332,-24.92 -8.98267,23.36 c -16.83333,43.76 -15.46133,87.7467 -12.856,125.5333 1.36667,19.8 -4.63067,26.4267 -15.51467,38.4534 -6.16133,6.8133 -13.832,15.28 -21.892,28.4266 -21.94799,35.8133 -26.70399,67.7467 -26.89599,69.0933 l -3.50267,24.5334 10.064,-22.6534 c 9.47733,-21.32 25.49066,-44.6933 41.78933,-60.9866 6.81867,-6.8133 12.21333,-11.12 16.224,-10.1067 6.112,1.5867 12.82933,15.2933 20.53333,41.9333 13.92267,48.1467 62.24666,88.4667 64.29596,90.16 l 18.7107,15.4534 -13.6693,-20.0534 c -0.34,-0.5066 -34.17202,-50.4 -41.94269,-86.68 -0.88933,-4.16 -1.94533,-8.2533 -3.00267,-12.32 -5.428,-20.9999 -10.56,-40.8133 9.70934,-65.1466 27.58932,-33.1067 101.21732,-47.4933 101.95862,-47.64"
   style="fill:#000000;"
   id="path98" /><path
   d="m 3082.9466,2317.6667 -113.72,-144.92 c -173.4667,87.3067 -81.56,277.9867 -79.2667,376.7867 2.2934,98.7866 -107.9866,114.8666 -220.56,82.7066 -112.5733,-32.16 -167.7066,-80.4133 -367.5866,-103.3866 -199.88,-22.9734 -256.1734,119.4666 -263.0534,274.5466 -6.8933,155.08 -148.1866,124.0667 -261.9199,62.0267 -113.72,-62.0267 -168.8534,-89.6 -303.2534,-117.1733 -134.4,-27.56 -260.4066,62.6666 -317.0546,218.4266 -56.6467,155.7734 27.4546,245.9467 75.8173,246.8134 127.504,2.2933 106.8373,-121.76 130.7573,-218.2534 23.9334,-96.4933 130,-94.2 215.0134,-43.6533 85,50.5467 179.7733,98.7867 179.7733,98.7867 0,0 249.84,68.92 352.4,4.6 102.5466,-64.3334 118,-165.4267 124.8933,-273.4 18.3733,-126.36 188.3867,-41.36 283.5867,-13.7867 95.1866,27.5733 228.7466,82.7067 355.1066,52.84 126.36,-29.8667 170.0134,-114.8667 186.0934,-195.28 16.08,-80.4133 -2.2934,-163.12 -16.08,-199.88 -13.7867,-36.76 -4.6,-80.4133 39.0533,-107.8"
   style="fill:#ffce00;"
   id="path100" /><path
   d="m 3027.7466,2431.52 c 12.9467,34.4934 30.7333,113.44 15.3333,190.4534 -19.92,99.56 -76.56,159.0533 -173.16,181.8933 -101.84,24.0533 -210.7733,-10.28 -298.2933,-37.8667 -16.9067,-5.3333 -32.8667,-10.36 -48.0667,-14.76 -15.3733,-4.4666 -33.0133,-10.5466 -51.6933,-16.9866 -75.3333,-25.96 -160.7067,-55.3867 -213.28,-23.36 -22.2267,13.5466 -35.84,36.4933 -40.4533,68.2 l -0.1467,1.3733 c -6.5333,102.44 -20.3867,199.4 -116.8533,259.9067 -90.8,56.96 -315.4933,-0.48 -337.0267,-6.1734 -12.76,-6.5466 -99.6266,-51.32 -177.1866,-97.4266 -61.7334,-36.7067 -126.96,-46.76 -174.4934,-26.92 -33.4933,14 -56.3333,42.0933 -66.04,81.24 -5.64,22.7466 -8.8666,46.6666 -11.9866,69.8 -11.7654,87.4133 -22.0827,136.6933 -101.7414,135.3733 -13.1186,-0.24 -34.072,-11.7067 -51.316,-36.8 -15.0586,-21.92 -46.036,-83.9867 -8.616,-186.8933 C 1220.58,2840.9867 1318.968,2760.64 1426.16,2760.64 c 14.52,0 29.2133,1.48 43.96,4.5067 133.6133,27.4 188.0533,55.1733 298.4666,115.4133 56.5867,30.8667 161.7467,76.8667 230.28,38.2 35.4,-19.96 54.6133,-58.52 57.1067,-114.6 4.6533,-104.7466 31.48,-178.7333 79.7466,-219.88 39.2134,-33.4266 94.4267,-46.3066 164.12,-38.3066 133.7067,15.36 201.08,42.04 266.24,67.8533 31.76,12.5733 61.7734,24.4667 98.5867,34.9867 87.08,24.8533 161.4933,20.2266 204.1733,-12.7467 25.9334,-20.0533 39.2,-50.12 38.3467,-86.9333 -0.56,-23.8534 -5.9067,-52.12 -11.56,-82.04 -18.6,-98.2934 -39.5867,-209.2534 69,-272.28 l 93.8,119.5333 c -34.7467,29.8 -46.84,74.0533 -30.68,117.1733 m -66.2667,-274.16 c -145.6666,73.3067 -119.1066,213.6667 -99.72,316.1467 5.3867,28.4933 10.48,55.4 10.9734,76.4267 0.6133,26.1466 -7.56,45.4 -24.9734,58.8533 -32.92,25.4533 -99.4533,28.08 -173.6266,6.88 -35.1734,-10.0533 -64.4134,-21.6267 -95.3734,-33.88 -67.2266,-26.6267 -136.76,-54.16 -274.9866,-70.0533 -79.5734,-9.1467 -143.6267,6.44 -190.4134,46.3333 -55.8266,47.5867 -86.72,129.88 -91.8266,244.56 -1.92,43.4133 -15.24,72.3867 -39.5867,86.12 -39.48,22.2533 -111.24,8.2533 -196.8533,-38.44 -113.56,-61.9467 -169.5867,-90.52 -308.0533,-118.9333 -140.9867,-28.88 -276.284,63.2933 -336.7014,229.4266 -30.2013,83.0534 -25.608,162.5734 12.6027,218.1867 21.5933,31.4267 51.9027,51.24 79.0973,51.7333 1.3,0.027 2.568,0.04 3.8427,0.04 110.3987,-0.013 122.2387,-87.7466 132.6787,-165.2666 2.9866,-22.2134 6.08,-45.2 11.2666,-66.12 7.08,-28.5334 22.52,-47.9467 45.88,-57.7067 36.96,-15.4533 91.9867,-5.96 143.6,24.72 84.52,50.2533 179.8134,98.8533 180.76,99.3333 l 1.56,0.8 1.68,0.4667 c 10.5067,2.88 258.4,70.1467 366.1467,2.5867 109.9333,-68.96 126.0133,-179.1334 132.88,-286.1867 3.1733,-20.9867 11.0933,-35.08 24.1733,-43.0533 38.7467,-23.6134 119.36,4.1866 184.1333,26.5066 19.0934,6.5867 37.1334,12.8 53.3334,17.4934 14.8133,4.2933 30.5866,9.2666 47.2933,14.5333 91.56,28.8667 205.4933,64.7867 316.5733,38.5333 109.5467,-25.8933 176.5067,-96.1066 199.0267,-208.6666 16.9333,-84.64 -2.6267,-171.4 -16.84,-209.32 -9.84,-26.2267 -6.5867,-62.8934 32.08,-87.16 l 16.2133,-10.1734 -134.24,-171.0666 -12.6,6.3466"
   style="fill:#000000;"
   id="path114" /><path
   d="m 3354.0399,2490.9467 c -68.92,97.64 -353.8,343.8 -666.2533,475.7333 -312.4533,131.9467 -839.72,141.1334 -929.8933,141.1334 -90.1733,0 -301.5467,71.2133 -367.0267,243.5333 -65.472,172.3066 -56.28,197.5733 -132.0986,277.9866 -62.448,66.24 -266.50402,94.2 -367.59069,-16.08 0,59.7334 29.86667,144.7334 232.04269,211.36 202.1746,66.6267 565.1666,85.0134 1052.2333,26.4267 487.0533,-58.5867 916.68,-233.2 1302.6533,-481.32 385.9733,-248.12 583.56,-630.6533 523.8133,-802.3866 -147.0267,-10.9067 -647.88,-76.3867 -647.88,-76.3867"
   style="fill:#fc9a24;"
   id="path116" /><path
   d="m 3889.4932,2929.1334 c -97.76,160.56 -247.8266,310.8666 -422.5733,423.1999 -415.3066,266.9867 -838.5733,423.4 -1293.9333,478.1734 -449.6666,54.08 -829.9333,44.7733 -1043.2973,-25.5334 -138.76532,-45.72 -189.13866,-98.96 -207.41999,-139.2533 43.26933,27.2667 97.38129,42.08 157.47729,42.5067 80.3694,0.7333 156.472,-24.84 194.068,-64.72 58.456,-61.9867 69.692,-94.8534 96.8254,-174.2534 9.8266,-28.72 22.04,-64.4533 39.56,-110.5733 61.0666,-160.68 259.7866,-230.1866 347.6933,-230.1866 24.4933,0 603.6933,-1.6267 937.9333,-142.76 306.9333,-129.6 585.36,-365.9867 667.6,-472.72 74.8133,9.72 475.8933,61.4533 622.76,73.8133 20.6,81.48 -14.8534,207.88 -96.6934,342.3067 m 127.5067,-381.4134 -13.5467,-1 c -144.7733,-10.7466 -641.7333,-75.6266 -646.7333,-76.28 l -12.3733,-1.6133 -7.2,10.1867 c -67.0267,94.9733 -351.8933,339.6266 -657.4,468.6266 -326.6133,137.9067 -897.7066,139.4934 -921.8533,139.4934 -100.68,0 -317.3733,75.3466 -386.3467,256.8666 -17.7733,46.76 -30.12,82.8667 -40.0333,111.88 -26.5373,77.64 -35.4787,103.7867 -87.7867,159.2667 -28.844,30.5866 -95.008,51.7333 -161.492,51.7333 -0.7306,0 -1.468,0 -2.1973,0 -41.9707,-0.3067 -120.33732,-9.48 -173.61866,-67.6 l -35.92,-39.1867 v 53.16 c 0,100.8267 80.548,176.4 246.24796,231 127.0174,41.8534 304.6,62.9467 519.8134,62.9467 161.1733,0 343.4533,-11.8267 541.3599,-35.64 461.72,-55.5333 890.6667,-214 1311.36,-484.44 383.4133,-246.48 597.1867,-639.68 532.1733,-826.5733 l -4.4533,-12.8267"
   style="fill:#000000;"
   id="path124" /><path
   d="m 2169.3999,3093.6534 c -11,-5.8934 -18.4133,-8.1467 -18.4133,-8.1467 0,0 80.9867,-120.28 -12.2933,-235.0133 -93.28,-114.7334 -279.1733,-23.3334 -353.8133,75.8133 -74.6267,99.16 -66.3867,229.6267 -18.3734,287.2133 8.3867,10.0667 16.8,19.4534 25.1734,28.28 233.1599,73.16 355.6266,-100.68 377.7199,-148.1466"
   style="fill:#ffffff;"
   id="path156" /><path
   d="m 1818.2,3005 c -82.7067,117.48 -2.12,176.7467 68.92,158.52 67.2,-17.2266 115.5866,-81.64 68.92,-149.9066 C 1909.3866,2945.3467 1838.6533,2975.96 1818.2,3005"
   style="fill:#fc63a2;"
   id="path158" /><path
   d="m 2020.5333,2906.3334 c -22.0667,16.04 -31.48,40.6933 -21.0267,55.0666 10.4533,14.36 36.8133,13 58.8667,-3.0533 22.0666,-16.0533 31.4666,-40.7067 21.0266,-55.0667 -10.4533,-14.36 -36.8133,-13 -58.8666,3.0534"
   style="fill:#fc63a2;"
   id="path160" /><path
   d="m 1925.4533,2870.1734 c -22.0667,16.0533 -31.48,40.7066 -21.0267,55.0666 10.4534,14.3734 36.8134,13 58.8667,-3.04 22.0667,-16.0533 31.48,-40.7066 21.0267,-55.08 -10.4534,-14.36 -36.8134,-12.9866 -58.8667,3.0534"
   style="fill:#fc63a2;"
   id="path162" /><path
   d="m 2049.5733,3011 c -24.7067,11.5734 -38.6134,34 -31.0667,50.0934 7.5333,16.08 33.6667,19.7333 58.3733,8.1466 24.6934,-11.5866 38.6134,-34.0133 31.0667,-50.0933 -7.5467,-16.08 -33.68,-19.7333 -58.3733,-8.1467"
   style="fill:#fc63a2;"
   id="path164" /><path
   d="m 2257.7466,3213.52 c -17.3867,-72.36 -62.6933,-106.1066 -88.3467,-119.8666 -22.0933,47.4666 -144.56,221.3066 -377.7199,148.1466 4.2533,4.4934 8.4933,8.88 12.72,13.0534 0,0 -57.4934,30.48 -93.6667,159.7199 l 455.9333,18.44 c 62.04,-36.76 115.9467,-116.0666 91.08,-219.4933"
   style="fill:#fc9a24;"
   id="path166" /><path
   d="m 2175.1999,3077.1867 c 19.6534,-40.1467 55.1867,-141.2267 -23.1333,-237.56 -32.5867,-40.0667 -78.6,-60.6 -132.9067,-59.7067 -96.9866,1.8267 -198.1999,69.8 -248.0399,136.0267 -78.0934,103.7467 -72.28,243.3333 -17.8534,308.6133 7.48,8.96 15.1734,17.6934 23.0267,26.0934 -6.8,4.5866 -14.76,10.72 -23.2533,18.8 -64.08,68.6799 -42.3067,145.1199 -42.3067,145.1199 32.9333,-117.6399 96.8,-142.5066 99.3467,-143.4533 l 26.08,-9.1066 -19.64,-19.4134 c -12.6267,-12.4933 -25,-25.9866 -36.7734,-40.1066 -45.04,-54.0134 -48.3466,-176.48 18.9067,-265.8134 43.7333,-58.1066 136.0933,-120.7066 221.1466,-122.2933 44.1734,-0.7467 79.5067,14.9733 105.52,46.9733 83.84,103.12 14.3467,210.0534 11.3734,214.52 l -12.84,19.2267 22.0933,6.88 c 2.9733,0.92 72.96,23.7067 95.0533,115.56 23.4267,97.4667 -20.8133,183.7466 -74.3333,215.4666 0,0 78.8533,-4.1333 108.4933,-102.2666 8.8134,-36.6 9.7867,-77.8267 -0.6533,-121.24 -19.4667,-80.9467 -70.96,-117.7467 -99.3067,-132.32"
   style="fill:#000000;"
   id="path168" /><path
   d="m 1929.6,3324.8 c -34.56,-15.2266 -75.3734,-44.7466 -112,-80.9733 l -8.5734,-8.48 -21.8133,22.04 8.5733,8.48 c 10.4134,10.2933 21.1734,20.1067 32.0667,29.2667 54.0933,46.2933 112.7733,34.52 112.7733,34.52 L 1929.6,3324.8"
   style="fill:#000000;"
   id="path170" /><path
   d="m 2025.8799,3159.4267 c 0,0 66.2934,7.3467 118.8267,-38.1467 11.8267,-12.0666 19.7733,-22.76 22.4,-29.68 l -32.16,-12.3733 c -4.3333,9.48 -49.9067,58.2933 -109.0667,80.2"
   style="fill:#000000;"
   id="path172" /><path
   d="m 3143.0133,2617.8934 c -72.2134,-42.48 -160.4667,-84.5467 -241.56,-72.96 -112.5867,16.08 -167.72,119.4666 -142.4534,213.6666 25.28,94.1867 110.28,119.4667 153.9334,124.0667 10.0666,1.0533 21.24,0.68 33.5466,0.3067 31.7867,-0.96 71.1334,-1.9334 118.4934,21.8533 115.28,-76.6267 98.3866,-247.32 78.04,-286.9333"
   style="fill:#ffffff;"
   id="path174" /><path
   d="m 3218.4933,2664.4 c -21.84,-13.4933 -47.4534,-30.0266 -75.48,-46.5066 20.3466,39.6133 37.24,210.3066 -78.04,286.9333 13.7466,6.8933 28.1466,15.8267 43.24,27.5067 87.3066,67.4933 206.0266,101.6666 325.4933,62.6133 l 79.4533,-347.6933 c -45.96,4.6 -216.5466,65.4 -294.6666,17.1466"
   style="fill:#fc9a24;"
   id="path176" /><path
   d="m 3284.6266,2682.4134 c -25.1867,-1.56 -48.12,-6.88 -66.1333,-18.0134 -1.6134,-0.9866 -3.24,-2 -4.8934,-3.0266 0.6534,-0.56 1.3067,-1.1067 1.96,-1.6667 24.36,10.7867 47.5467,17.9467 69.0667,22.7067"
   style="fill:#fdb866;"
   id="path178" /><path
   d="m 3213.5999,2661.3734 c -5.5733,-3.4667 -11.3733,-7.1067 -17.3866,-10.88 6.5333,3.3333 12.9733,6.4 19.3466,9.2133 -0.6533,0.56 -1.3066,1.1067 -1.96,1.6667"
   style="fill:#4d4d9d;"
   id="path180" /><path
   d="m 3157.2399,2688.2134 c -6.96,-3.84 -12.84,-7.4667 -17.4266,-10.6 l 3.2,-59.72 v 0 c 6.4666,12.6 12.5866,38.4533 14.2266,70.32"
   style="fill:#ffffff;"
   id="path182" /><path
   d="m 2940.3866,2309.4667 c -3.36,-5.76 -6.5867,-11.44 -9.6667,-17.0133 l 9.6667,17.0133 v 0"
   style="fill:#ccb97d;"
   id="path194" /><path
   d="m 3077.4399,2487.8667 c -17.4933,-17.6533 -33.6,-35.3867 -48.4666,-52.9867 -0.4134,-1.16 -0.8134,-2.28 -1.2267,-3.36 -11.4933,-30.68 -8.6933,-61.9333 6.4,-88.1466 8.48,8.3066 17.1733,16.5466 26.1333,24.7866 -7.24,17.64 -5.9066,36.1734 -0.2533,51.2534 5.8667,15.68 12.6667,39.6933 17.4133,68.4533 m -170.08,-240.76 c -6.2133,-13.0133 -11.56,-25.12 -16.1466,-36.1333 5.2133,-6.16 10.96,-12.1334 17.3066,-17.9067 6.3334,9.64 12.9467,19.2267 19.8667,28.7867 -8.24,7.9866 -15.2,16.4266 -21.0267,25.2533"
   style="fill:#000000;"
   id="path196" /><path
   d="m 2881.4533,2923.6 c -4.6,-2.32 -8.9467,-4.7466 -13.12,-7.2533 7.5866,4.4533 13.24,7.16 13.24,7.16 -0.053,0.04 -0.08,0.053 -0.12,0.093"
   style="fill:#ca9368;"
   id="path202" /><path
   d="m 2855.5199,2908.0134 c -12.48,-8.7467 -23.4666,-18.32 -34.5066,-28.48 6.6,-3.56 13.1733,-7.16 19.7333,-10.8 21.28,7.4133 43.3333,14.84 53.48,17.4533 0.013,0 0.013,0 0.027,0 -12.7734,7.3867 -25.7067,14.68 -38.7334,21.8267 m 401.44,-284.6267 c -12.4,-7.0133 -24.92,-14.4267 -37.44,-22.2533 26.6667,-23.68 49.9734,-45.9334 69.2934,-65.8667 12.4133,7.0667 24.9333,13.92 37.5733,20.5733 -19.2133,20.3867 -42.52,43.16 -69.2933,67.44 -0.053,0.04 -0.093,0.08 -0.1334,0.1067"
   style="fill:#000000;"
   id="path204" /><path
   d="m 2166.6666,3433.0133 v 0 c 7.6533,-4.5333 15.1067,-10.1733 22.2,-16.8133 l 75.08,-56.84 c -0.013,0.067 -0.027,0.1333 -0.04,0.2 -34.6133,70.1733 -97.24,73.4533 -97.24,73.4533"
   style="fill:#000000;"
   id="path234" /><path
   d="m 1923.0533,3331 c -21.4667,0 -59.3333,-5.1733 -95.2,-35.8666 -0.067,-0.053 -0.1333,-0.12 -0.2,-0.1734 5.8133,-4.36 11.4933,-8.32 16.96,-11.7866 28.1067,40.5733 96.0133,46.48 96.0133,46.48 0,0 -6.6666,1.3466 -17.5733,1.3466 m 17.5733,-1.3466 v 0 0"
   style="fill:#000000;"
   id="path236" /><path
   d="m 2036.5599,3159.8667 c -6.7333,0 -10.68,-0.44 -10.68,-0.44 l 70.6134,-21.36 c 0,0 5.3866,1.7467 13.8266,5.5467 -29.84,14.0666 -58.7333,16.2533 -73.76,16.2533"
   style="fill:#000000;"
   id="path238" /><path
   d="m 3474.3599,2653.24 c -66,11.2934 -188.84,32.2934 -246.8133,-3.4933 -6.6,-4.08 -13.56,-8.4533 -20.8267,-13 -79.0266,-49.5733 -198.4133,-124.4933 -307.7066,-108.8667 -56.08,8.0134 -103.1467,36.9467 -132.5334,81.48 -29.5333,44.7334 -38.32,100.76 -24.12,153.7067 30.48,113.5867 136.88,133.3733 168.7734,136.7333 11,1.16 22.6666,0.8 35.0266,0.4134 39.5867,-1.1867 88.7867,-2.7334 151.52,45.76 32.2,24.8933 96.2,67.76 175.5334,86.8 104.8133,19.1866 160.4933,-37.8267 160.4933,-37.8267 -137.2667,44.8533 -265.96,-38.3733 -314.9467,-76.24 -72.52,-56.0667 -131,-54.2667 -173.6666,-52.9467 -11.64,0.3734 -21.6934,0.6667 -30.36,-0.24 -26.36,-2.7733 -114.2934,-19.0133 -139.08,-111.3866 -11.6667,-43.4267 -4.52,-89.28 19.5866,-125.7867 23.88,-36.1867 62.4667,-59.76 108.64,-66.3467 96.7334,-13.84 209.76,57.04 284.5334,103.9334 7.3333,4.6 14.36,9.0133 21.0266,13.12 28.5734,17.6533 66.9467,24.3066 107.4667,25.12 114.8533,-5.88 196.2533,-56.92 196.2533,-56.92 -9.2,0.92 -22.2667,3.1466 -38.8,5.9866"
   style="fill:#000000;"
   id="path244" /><path
   d="m 2821.3066,2766.4 c -19.7067,25.0534 -24.9067,57.68 -14.3067,89.52 l 32.6934,-10.88 c -14.3467,-74.3733 72.3733,-117.4 72.3733,-117.4 -34.9467,-2.9066 -69.68,11.9467 -90.76,38.76"
   style="fill:#000000;"
   id="path246" /><path
   d="m 2790.3466,2633.4667 c -31.6,20.2533 -51.3867,51.9733 -54.3067,87.0667 l 34.3467,2.84 c 7.76,-81.0267 123.1733,-105.0267 123.1733,-105.0267 -31.3066,-11.4 -70.8533,-5.5867 -103.2133,15.12"
   style="fill:#000000;"
   id="path248" /><path
   d="m 3701.9999,848.49341 c -129.5333,107.53333 -271.28,293.26669 -332.3733,400.79999 l 642.7466,-36.6667 c 0,0 -2.44,-129.52 -75.76,-281.03996 -73.32,-151.53333 -105.0933,-190.62666 -234.6133,-83.09333"
   style="fill:#fc9a24;"
   id="path250" /><path
   d="m 3409.9332,1224.9601 c 64.24,-101.8534 186.5067,-260.25336 306.1067,-359.54669 45.5867,-37.84 77.72,-55.84 100.0133,-55.84 2.6934,0 5.24,0.26667 7.6534,0.78667 30.8666,6.69333 59.2266,60.78666 93.1066,130.8 53.2267,110.01332 68.0267,208.94662 72.08,250.78662 l -578.96,33.0134 m 546.48,-302.96002 c -41.76,-86.29333 -72.9066,-143.68 -123.3733,-154.64 -38.1467,-8.26667 -80.2,10.32 -145.0933,64.2 -125.92,104.53333 -270.4534,288.96002 -337.4534,406.86662 l -19.9466,35.12 704.2133,-40.16 -0.4,-21.1733 c -0.093,-5.48 -3.3867,-136.12 -77.9467,-290.21332"
   style="fill:#000000;"
   id="path254" /><path
   d="m 3711.7732,960.90674 c -58.6533,56.21336 -136.8666,146.63996 -190.6266,229.73336 l 356.8133,-24.44 c -46.44,-276.17336 -107.5333,-261.50669 -166.1867,-205.29336"
   style="fill:#fc63a2;"
   id="path256" /><path
   d="m 3557.3466,1169.7867 c 52.5466,-74.7866 119.4533,-149.9733 167.1066,-195.63996 19.7467,-18.92 34.8267,-28.01333 46.7334,-28.01333 2.3333,0 4.5466,0.34667 6.6533,1.04 17.0133,5.64 49.2667,39.74667 78.5733,202.13329 l -299.0666,20.48 m 232.0266,-257.39996 c -35.6133,-11.8 -68.5866,14.49334 -90.28,35.29334 -51.68,49.52 -133.32,140.25332 -193.3333,233.00002 l -19.9067,30.7466 413.5334,-28.32 -3.3467,-19.9466 c -26.5333,-157.7867 -59.4267,-235.12002 -106.6667,-250.77336"
   style="fill:#000000;"
   id="path260" /><path
   d="m 3811.5999,2217.7067 c -132.3467,-33.6133 -199.4133,-142.9733 -225.08,-221.7866 -25.6667,-78.8267 -75.1467,-183.3067 -155.8,-234.6267 -80.6533,-51.32 -170.4666,-53.1467 -241.9466,-40.32 -71.4934,12.8267 -100.2,-34.2133 -107.5334,-73.32 -7.3333,-39.0933 -17.1066,-119.7333 -41.96,-147.24 -58.8,39.6933 -181.5466,133.76 -204.9066,301.2133 -28.1334,201.6133 59.2666,410.4133 313.2933,612.2 254.0266,201.7867 601.9866,296.9333 823.0266,245.6133 109.2934,-25.3733 209.6534,-101.9333 290.3334,-211.7733 -95.04,-240.8933 -323.2,-197.9067 -449.4267,-229.96"
   style="fill:#ffffff;"
   id="path262" /><path
   d="m 4667.3465,1376.3734 c -139.6666,-37.9067 -284.1866,-36.7067 -399.0533,-25.6933 -22.3866,-22.64 -46.6,-43.48 -72.6266,-62.28 -135.4667,-97.9334 -226.0667,-146.64 -373.7867,-167.88 -149.3467,-21.4667 -291.9467,19.6933 -369.16,59.7333 -98.9867,51.32 -207.1333,150.2933 -247.4533,190.6267 -40.32,40.32 -108.1467,89.8133 -139.3067,111.8133 -5.28,3.72 -14.68,9.6133 -26.68,17.72 24.8534,27.5067 34.6267,108.1467 41.96,147.24 7.3334,39.1067 36.04,86.1467 107.5334,73.32 71.48,-12.8267 161.2933,-11 241.9466,40.32 80.6533,51.32 130.1333,155.8 155.8,234.6267 25.6667,78.8133 92.7333,188.1733 225.08,221.7866 126.2267,32.0533 354.3867,-10.9333 449.4267,229.96 74.5333,-101.4667 132.28,-231.3333 164.5866,-375.76 96.1334,-103.4533 229.72,-277.52 297.9467,-397.3733 90.4266,-158.8533 114.8666,-251.72 -56.2134,-298.16"
   style="fill:#fc9a24;"
   id="path266" /><path
   d="m 3039.2799,1567.0001 -16.0666,-28.08 c 10.1866,-7.7334 19.5733,-14.32 27.72,-19.8534 4.6,9.9067 8.5066,21.7467 11.8933,34.3734 -8.4267,5.2266 -16.32,9.7733 -23.5467,13.56"
   style="fill:#ffffff;"
   id="path268" /><path
   d="m 4704.4399,1663.6534 c -69.7733,122.5867 -204.7467,296.2267 -294.9333,393.2933 l -4.0534,4.36 -1.3066,5.8 c -32.6534,145.96 -91.3734,277.24 -169.84,379.6667 -78.5467,102.56 -171.4134,168.68 -268.5867,191.24 -224.3867,52.1066 -562.68,-49.4267 -804.36,-241.4134 -231.6533,-184 -334.3466,-383.16 -305.2,-591.9333 24.32,-174.3466 164.6934,-266.08 210.8134,-296.2133 4.88,-3.1867 8.8266,-5.7867 11.68,-7.8 28.56,-20.16 99.6,-71.6667 142.16,-114.2267 47.1866,-47.1733 151.2533,-139.5866 242.0266,-186.6533 61.2533,-31.76 163.7333,-63.0933 275.6667,-63.0933 26.36,0 53.2533,1.7333 80.24,5.6133 145.7066,20.9467 233.48,69.5467 364.04,163.9333 24.7333,17.88 48.24,38.04 69.8533,59.92 l 7.3467,7.4267 10.4,-1 c 146.5866,-14.0533 278.2133,-5.64 391.2,25.0267 58.8266,15.9733 93.1466,37.5466 104.9733,65.96 18.1466,43.64 -11.72,111.5466 -62.12,200.0933 m -31.32,-308.5067 c -115.4533,-31.3333 -248.8533,-40.5066 -396.6133,-27.32 -21.24,-20.7466 -44.0667,-39.9866 -67.9467,-57.2533 -133.64,-96.6 -229.64,-149.6933 -383.56,-171.8133 -151.76,-21.84 -297.04,17.7066 -382.4133,61.96 -117.64,61 -239.3867,181.1066 -252.8667,194.6 -40.16,40.16 -108.8,89.88 -136.44,109.4 -2.52,1.7866 -6.0533,4.0666 -10.3733,6.9066 -50.2667,32.84 -203.2267,132.8134 -230.3067,326.96 -31.4533,225.2933 76.68,438.08 321.3867,632.4667 206.5866,164.0933 482.5066,264.2933 705.4933,264.2933 48.2933,0 94.1067,-4.7067 136.1867,-14.48 214.1466,-49.72 398.24,-284.2667 470.0933,-598.3467 91.8533,-99.6666 226.5866,-273.5599 296.92,-397.1066 58.4266,-102.64 89.6,-178.3867 64.4933,-238.7467 -17.6267,-42.3866 -60.2267,-71.48 -134.0533,-91.52"
   style="fill:#000000;"
   id="path276" /><path
   d="m 4620.3066,1480.8534 c -73.8934,-13.04 -168.3467,-5.4267 -249.0667,11 59.3467,112.4267 87.76,248.9733 79.5333,401.5067 47.1334,-53.32 94.8134,-114.3734 145.7067,-190.72 76.9733,-115.48 117.3066,-205.2934 23.8267,-221.7867"
   style="fill:#fc63a2;"
   id="path278" /><path
   d="m 4371.2399,1491.8534 c 31.2267,-10.0133 70.0133,-14.7067 109.24,-15.3733 -37.1333,2.8533 -74.4533,8.2933 -109.24,15.3733"
   style="fill:#cc721d;"
   id="path280" /><path
   d="m 4581.2266,1692.4801 c -36.28,54.4 -72.7734,103.7333 -110.76,149.6533 -0.1334,-123.12 -24.6667,-238.24 -71.9334,-336.8133 81.4667,-14.3334 160.04,-16.7334 218.5867,-6.4134 29.5867,5.2267 34.72,17.2267 36.4133,21.1734 16.6533,38.9466 -47.9733,135.8933 -72.3066,172.4 z m 42.2666,-229.68 c -68.5466,-12.0934 -161.8266,-8.0534 -255.9066,11.0933 l -23.9734,4.8667 11.4267,21.64 c 58.5067,110.8666 85.28,246.4133 77.4267,391.9733 l -2.8267,52.5733 34.8667,-39.4533 c 51.36,-58.0933 99.5066,-121.12 147.2133,-192.68 71.0133,-106.5067 92.88,-166.52 75.52,-207.1467 -9.7067,-22.6933 -31.1467,-37.1066 -63.7467,-42.8666"
   style="fill:#000000;"
   id="path284" /><path
   d="m 3312.1066,1448.2667 c -67.68,-54.64 -173.1867,26.64 -193.64,43.4934 0,0 110.7867,-52.64 165,-12.12 55.6,41.5466 10.08,176.7733 10.08,176.7733 31.4933,-44.4667 79.88,-158.6 18.56,-208.1467"
   style="fill:#000000;"
   id="path286" /><path
   d="m 3859.9732,1838.5467 c -71.08,-56 -179.92,-9.5733 -219.7733,26.4667 0,0 119.9733,-39.5067 189.76,9.6667 70,49.32 59.6,160.8133 59.6,160.8133 14.2667,-37.0667 36.7333,-144.6933 -29.5867,-196.9467"
   style="fill:#000000;"
   id="path288" /><path
   d="m 3396.5066,1815.0667 c -24.44,-16.96 -45.8267,-31.2933 -68.4267,-31.16 -20.8133,0.12 -41.5466,3.6667 -44.9066,46.7734 -0.8667,11.1066 0.32,24.9733 3.36,42.16 9.7733,55.3333 41.5466,53.4266 80.6399,56.9466 39.1067,3.5334 64.7734,-3.52 75.76,-35.8933 11,-32.3733 -26.1066,-64.72 -46.4266,-78.8267"
   style="fill:#000000;"
   id="path290" /><path
   d="m 3248.3199,1954.1067 25.08,15.2 c 0.2134,-0.3466 21.5067,-35.2 48.6,-61.9333 l -20.5866,-20.88 c -29.7734,29.36 -52.1467,66.0533 -53.0934,67.6133"
   style="fill:#000000;"
   id="path294" /><path
   d="m 3299.9733,2043.5734 c -28.1067,-41.5467 -39.1067,-81.88 -39.1067,-81.88 -57.4267,11 -98.9733,-14.6533 -106.3067,-41.5467 -1.3866,-5.0533 -2.4133,-11.3333 -3.16,-18.3733 v 0 c 1.9334,35.4933 -2.96,135.6933 -6.6266,171.12 -3.6534,35.44 116.0933,73.32 116.0933,73.32 0,0 39.8667,-65.2 94.0133,-64.4667 v -0.093 c -24.4533,-5.56 -41.9466,-18.9067 -54.9066,-38.08"
   style="fill:#000000;"
   id="path296" /><path
   d="m 3254.9999,2128.84 c -55.0133,-18.8133 -96.68,-44.4 -95.64,-54.4266 2.4934,-24 5.3334,-73.5334 6.5467,-115.56 19.9333,14.6267 49.5467,23.1467 84.8267,19.2 5.56,15.7867 17.24,44.3733 37.0933,73.7333 7.0533,10.44 15.08,19.08 24.16,26.0133 -27.0267,13.8267 -47.16,37.68 -56.9867,51.04 m 57.12,-93.48 c -26.2933,-38.8666 -37.0133,-77.1466 -37.1066,-77.5199 l -3.5734,-13.0934 -13.3333,2.5467 c -50.2,9.6133 -84.1733,-11.8267 -89.4,-30.9867 -1.12,-4.12 -2.0267,-9.52 -2.7067,-16.04 l -29.24,2.3067 c 1.8667,34.24 -2.8666,133.0533 -6.56,168.8133 -4.4266,42.72 86.8134,76.3333 126.24,88.8133 l 10.92,3.4267 6,-9.7467 c 0.36,-0.5733 35.9067,-57.4666 80.6133,-57.4666 0.24,0 0.48,0 0.72,0 l 14.8534,0.1066 v -26.5733 l -11.4134,-2.5867 c -19.6533,-4.48 -34.2799,-14.64 -46.0133,-32"
   style="fill:#000000;"
   id="path298" /><path
   d="m 3212.5999,2079.0134 c -7.9466,-28.1067 -43.3866,-29.3334 -58.04,-23.84 -14.6666,5.5066 -53.16,29.3333 -70.2666,66.6 -17.1067,37.28 -4.8934,84.32 27.4933,104.48 32.3867,20.16 81.2533,14.0533 101.4267,-6.1067 20.16,-20.16 39.7066,-61.7067 47.6533,-73.9333 0,0 4.4267,-7.16 12.2,-16.6534 1.92,-47.9066 -49.4133,-52.88 -60.4667,-50.5466"
   style="fill:#fc63a2;"
   id="path300" /><path
   d="m 3117.5999,2078.8934 c 4.32,-4.1467 8.6267,-7.5734 12.88,-10.36 -0.013,0.093 -0.013,0.1733 -0.027,0.2666 -4.1734,2.9467 -8.5067,6.32 -12.8534,10.0934"
   style="fill:#ffffff;"
   id="path302" /><path
   d="m 3130.4533,2068.8 c 0.013,-0.093 0.013,-0.1733 0.027,-0.2666 1.12,-0.7334 2.2267,-1.4134 3.3334,-2.0534 -1.1067,0.7334 -2.2267,1.5067 -3.36,2.32"
   style="fill:#4d4d9d;"
   id="path304" /><path
   d="m 3248.5733,2138.2267 c -2.4267,3.72 -5.4267,9.1733 -9.2267,16.08 -9.2533,16.8 -23.2133,42.1867 -36.5067,55.4667 -15.5066,15.5066 -57,20.4 -83.3066,4.04 -25.8667,-16.1067 -35.8934,-55.4534 -21.92,-85.92 14.8133,-32.2667 48.84,-54.0134 62.0933,-58.9867 2.64,-0.9867 6.7467,-1.64 11.32,-1.64 5.6667,0 12.0667,1.0133 17.28,3.6533 5.3067,2.68 8.64,6.64 10.1733,12.08 l 3.96,12.8134 13.1467,-2.4534 c 3.6267,-0.6533 21.6933,0.24 33.1733,10.1867 5.96,5.1733 9.1334,12.0267 9.6267,20.8933 -6.24,8.0267 -9.8,13.7467 -9.8133,13.7867 z m 18.84,-57.32 c -14.2534,-12.04 -32.4267,-16.2 -45.2667,-16.88 -4.6533,-8.1867 -11.6267,-14.7467 -20.6,-19.28 -17.8267,-9.0133 -39.52,-8.0267 -52.1467,-3.2933 -13.8933,5.2133 -58.16,30.04 -78.4266,74.2133 -20.1734,43.9333 -5.3334,99.1333 33.0666,123.04 16.3334,10.1733 35.6,14.6267 54.2667,14.6267 26.2133,0 51.24,-8.7867 65.2667,-22.8134 16.2266,-16.24 31.4133,-43.8133 41.4666,-62.0666 3.3734,-6.1334 6.28,-11.4267 8.2934,-14.5067 0.027,-0.067 4.0933,-6.5733 11.08,-15.0933 l 3.1066,-3.8 0.2,-4.9067 c 0.8134,-20.2933 -6.2133,-37.32 -20.3066,-49.24"
   style="fill:#000000;"
   id="path310" /><path
   d="m 3312.1199,2035.36 c -26.2933,-38.8666 -37.0133,-77.1466 -37.1066,-77.5199 l -3.5734,-13.0934 -13.3333,2.5467 c -50.2,9.6133 -84.1733,-11.8267 -89.4,-31 -6.5467,-24 -4.36,-82.9867 0.3067,-111.04 0,0 -36.4534,25.6933 -32.52,95.0133 0.8266,8.9334 2.0933,17.0667 3.9066,23.7467 9,32.9733 51.9467,60.5733 110.3334,54.04 5.56,15.7867 17.24,44.3733 37.0933,73.7333 21.4667,31.7333 52.16,47.4533 94.0666,47.4533 63.04,-2.52 86.6934,-47.4933 86.6934,-47.4933 -103.92,36.84 -138.2267,10.6 -156.4667,-16.3867"
   style="fill:#000000;"
   id="path312" /><path
   d="m 3216.5733,2065.2 -6.2,3.92 c -58.8667,29.52 -62.0134,87.4934 -62.0134,87.4934 0,0 42.24,-59.88 68.24,-63.36 l 11.7467,-9.48 -11.7733,-18.5734"
   style="fill:#000000;"
   id="path314" /><path
   d="m 3858.5599,1572.7467 c -44.6667,-21.5733 -89.6933,-20.8 -100.6,1.7334 -10.8933,22.5466 8.9867,62.5866 53.64,84.1733 44.6533,21.5867 97.1867,16.5467 108.08,-6 10.9067,-22.5333 -16.4667,-58.32 -61.12,-79.9067"
   style="fill:#ffffff;"
   id="path316" /><path
   d="m 3546.2532,1341.9467 c -33.7333,-26.2533 -73.44,-31.6666 -88.6533,-12.0933 -15.2267,19.5733 -1.2,64.8533 32.5467,91.1067 33.7466,26.24 74.4266,23.52 89.6533,3.9466 15.2133,-19.5733 0.2,-56.7066 -33.5467,-82.96"
   style="fill:#ffffff;"
   id="path318" />
   </svg>
